HIERARCHY
ROOT pelvis
{
	OFFSET 0.000000 0.000000 0.742794
	CHANNELS 6 Xposition Yposition Zposition Xrotation Yrotation Zrotation
	JOINT spine
	{
		OFFSET 0.000000 0.000000 0.000000
		CHANNELS 6 Xposition Yposition Zposition Xrotation Yrotation Zrotation
		JOINT spine.001
		{
			OFFSET 0.000000 -0.014091 0.268866
			CHANNELS 3 Xrotation Yrotation Zrotation
			JOINT neck
			{
				OFFSET 0.000000 0.032811 0.267228
				CHANNELS 6 Xposition Yposition Zposition Xrotation Yrotation Zrotation
				JOINT face
				{
					OFFSET 0.000000 0.003472 0.198929
					CHANNELS 6 Xposition Yposition Zposition Xrotation Yrotation Zrotation
					End Site
					{
						OFFSET 0.000000 -0.020987 -0.007888
					}
				}
			}
			JOINT shoulder.L
			{
				OFFSET 0.000000 0.032811 0.267228
				CHANNELS 6 Xposition Yposition Zposition Yrotation Xrotation Zrotation
				JOINT upper_arm.L
				{
					OFFSET 0.165131 0.000000 0.000000
					CHANNELS 6 Xposition Yposition Zposition Xrotation Yrotation Zrotation
					JOINT forearm.L
					{
						OFFSET 0.287959 0.000115 0.000957
						CHANNELS 6 Xposition Yposition Zposition Xrotation Yrotation Zrotation
						End Site
						{
							OFFSET 0.238138 -0.004051 -0.001318
						}
					}
				}
			}
			JOINT shoulder.R
			{
				OFFSET 0.000000 0.032811 0.267228
				CHANNELS 6 Xposition Yposition Zposition Yrotation Xrotation Zrotation
				JOINT upper_arm.R
				{
					OFFSET -0.165131 0.000000 0.000000
					CHANNELS 6 Xposition Yposition Zposition Xrotation Yrotation Zrotation
					JOINT forearm.R
					{
						OFFSET -0.291815 0.000115 0.000957
						CHANNELS 6 Xposition Yposition Zposition Xrotation Yrotation Zrotation
						End Site
						{
							OFFSET -0.240676 -0.004095 -0.001318
						}
					}
				}
			}
		}
	}
	JOINT pelvis.L
	{
		OFFSET 0.000000 0.000000 0.000000
		CHANNELS 6 Xposition Yposition Zposition Yrotation Xrotation Zrotation
		End Site
		{
			OFFSET 0.096759 0.000000 0.000000
		}
	}
	JOINT pelvis.R
	{
		OFFSET 0.000000 0.000000 0.000000
		CHANNELS 6 Xposition Yposition Zposition Yrotation Xrotation Zrotation
		End Site
		{
			OFFSET -0.096759 0.000000 0.000000
		}
	}
	JOINT thigh.L
	{
		OFFSET 0.096759 0.000000 0.000000
		CHANNELS 6 Xposition Yposition Zposition Xrotation Yrotation Zrotation
		JOINT shin.L
		{
			OFFSET 0.018463 0.000000 -0.352297
			CHANNELS 6 Xposition Yposition Zposition Xrotation Yrotation Zrotation
			JOINT foot.L
			{
				OFFSET 0.016977 0.000000 -0.323948
				CHANNELS 3 Xrotation Yrotation Zrotation
				End Site
				{
					OFFSET 0.014710 -0.149981 -0.062979
				}
			}
			JOINT heel.02.L
			{
				OFFSET 0.016977 0.000000 -0.323948
				CHANNELS 3 Xrotation Yrotation Zrotation
				End Site
				{
					OFFSET 0.087874 0.034407 -0.061107
				}
			}
		}
	}
	JOINT thigh.R
	{
		OFFSET -0.096759 0.000000 0.000000
		CHANNELS 6 Xposition Yposition Zposition Xrotation Yrotation Zrotation
		JOINT shin.R
		{
			OFFSET -0.018641 0.000000 -0.355699
			CHANNELS 6 Xposition Yposition Zposition Xrotation Yrotation Zrotation
			JOINT foot.R
			{
				OFFSET -0.016869 0.000000 -0.321887
				CHANNELS 3 Xrotation Yrotation Zrotation
				End Site
				{
					OFFSET -0.015231 -0.155299 -0.065213
				}
			}
			JOINT heel.02.R
			{
				OFFSET -0.016869 0.000000 -0.321887
				CHANNELS 3 Xrotation Yrotation Zrotation
				End Site
				{
					OFFSET -0.083768 0.034407 -0.059976
				}
			}
		}
	}
}
MOTION
Frames: 4
Frame Time: 0.041667
-0.010761 -0.050286 0.738501 -0.000000 0.000000 2.231816 -0.000000 0.000000 0.000000 -4.897756 -1.153568 -0.110041 9.993404 0.303415 2.471745 0.000000 0.032811 0.267228 18.315253 1.226440 2.530861 -0.000000 0.003472 0.198929 2.266226 -0.000000 0.000001 0.000000 0.032811 0.267228 2.747278 0.008089 -0.337286 0.165131 0.000000 -0.000000 -4.923730 75.568325 6.292128 0.287959 0.000115 0.000957 1.811661 8.051318 -25.289861 0.000000 0.032811 0.267228 2.798858 0.008395 -0.343577 -0.165131 -0.000000 0.000000 -20.624712 -80.325688 -24.261624 -0.291815 0.000115 0.000957 2.594053 -12.707919 22.080521 0.000000 0.000000 0.000000 -1.429020 -0.000000 -0.000012 0.000000 0.000000 0.000000 -1.428985 0.000000 0.000000 0.096729 0.000000 0.002413 7.749878 3.840901 0.146775 0.018463 -0.000000 -0.352297 1.173044 -1.112162 0.072828 -11.992030 -4.686844 6.236552 -16.473489 48.536520 44.658253 -0.096729 -0.000000 -0.002413 5.789419 -2.170375 -0.194103 -0.018641 0.000000 -0.355699 6.380014 -2.440150 -0.198911 -10.102377 2.820056 -3.371814 -15.588322 -45.287115 -34.506143 
-0.010474 -0.053212 0.735695 -0.000000 0.000000 3.470880 -0.000000 0.000000 0.000000 -5.438483 -1.031178 -0.103277 9.997834 0.176309 1.436182 0.000000 0.032811 0.267228 19.191179 0.654354 2.598702 0.000000 0.003472 0.198929 1.852136 -0.000001 0.000000 -0.000000 0.032811 0.267228 2.656980 0.007561 -0.326075 0.165131 0.000000 0.000000 -5.279769 75.904493 6.709349 0.287959 0.000115 0.000957 1.755184 7.932132 -24.883281 0.000000 0.032811 0.267228 2.708596 0.007859 -0.332462 -0.165131 0.000000 0.000000 -18.190979 -80.184877 -21.465548 -0.291815 0.000115 0.000957 2.554300 -12.744174 21.651681 0.000000 0.000000 -0.000000 -0.969416 -0.000000 0.000021 0.000000 0.000000 -0.000000 -0.969417 -0.000000 0.000000 0.096745 -0.000000 0.001637 7.797419 3.608770 0.163526 0.018463 -0.000000 -0.352297 1.336972 -0.850946 0.079970 -12.154247 -3.945995 4.856887 -15.648039 47.649876 42.450934 -0.096745 0.000000 -0.001637 6.783428 -2.983606 -0.179298 -0.018641 -0.000000 -0.355699 5.163696 -1.416926 -0.207038 -10.519611 3.438417 -4.409848 -16.781643 -46.412805 -36.103933 
-0.010116 -0.055075 0.733637 -0.000000 0.000000 4.175110 -0.000000 0.000000 0.000000 -5.784773 -0.954083 -0.098469 9.999248 0.103510 0.842968 -0.000000 0.032811 0.267228 19.735191 0.252456 2.751186 -0.000000 0.003472 0.198929 1.630557 0.000000 0.000000 -0.000000 0.032811 0.267228 2.621315 0.007362 -0.321780 0.165131 -0.000000 0.000000 -5.627792 76.161206 7.121328 0.287959 0.000115 0.000957 1.707423 7.788117 -24.683006 -0.000000 0.032811 0.267228 2.672892 0.007654 -0.328111 -0.165131 -0.000000 -0.000000 -16.494716 -80.073928 -19.508825 -0.291815 0.000115 0.000957 2.540176 -12.868553 21.290263 0.000000 0.000000 0.000000 -0.615411 -0.000000 -0.000054 0.000000 0.000000 0.000000 -0.615411 -0.000000 0.000000 0.096754 0.000000 0.001039 7.796861 3.454097 0.174070 0.018463 -0.000000 -0.352297 1.549254 -0.622327 0.089588 -12.148889 -3.467218 3.998505 -15.236002 47.111821 41.046090 -0.096754 -0.000000 -0.001039 7.518354 -3.577353 -0.159724 -0.018641 0.000000 -0.355699 4.181566 -0.558557 -0.198903 -10.870077 3.774755 -4.928400 -17.656864 -47.193404 -37.296893 
-0.009757 -0.055872 0.732513 -0.000000 0.000000 4.341372 -0.000000 0.000000 0.000000 -5.936626 -0.934196 -0.097668 9.999428 0.085979 0.700376 0.000000 0.032811 0.267228 19.941760 0.035842 2.963322 0.000000 0.003472 0.198929 1.625161 0.000000 -0.000002 -0.000000 0.032811 0.267228 2.637927 0.007456 -0.323823 0.165131 -0.000000 0.000000 -5.996311 76.316238 7.569097 0.287959 0.000115 0.000957 1.681138 7.663626 -24.734386 0.000000 0.032811 0.267228 2.689591 0.007750 -0.330136 -0.165131 -0.000000 0.000000 -15.563197 -80.010270 -18.430538 -0.291815 0.000115 0.000957 2.548693 -13.073770 20.988840 -0.000000 0.000000 0.000000 -0.383410 -0.000000 0.000043 -0.000000 0.000000 0.000000 -0.383410 -0.000000 0.000000 0.096757 -0.000000 0.000647 7.751911 3.407522 0.176222 0.018463 0.000000 -0.352297 1.799231 -0.507284 0.102243 -12.059991 -3.256003 3.642690 -15.197955 46.938713 40.392158 -0.096757 -0.000000 -0.000648 8.005499 -3.889102 -0.148253 -0.018641 -0.000000 -0.355699 3.412341 0.024860 -0.179624 -11.193053 3.824874 -4.923409 -18.100170 -47.576991 -37.917344 
